<svg xmlns="http://www.w3.org/2000/svg" viewBox="0 0 367 206"><defs><style>.a{fill:#a512fb;}</style></defs><path class="a" d="M143.63,135.51c-5.83.23-10.13,4.18-15.21,6.24-1,.4-1.49,1.29-1,1.91,2.88,3.51-.87,4.27-2.46,5.49s-3.41,3.37-5.44.3a2.13,2.13,0,0,0-2.8-.36c-5,2.86-10.87,2.88-15.93,5.91a321.09,321.09,0,0,1-31.74,17c-9.89,4.49-19.59,9.45-29.55,13.64-12.17,5.12-22.71,12.82-34.22,18.91-1.37.73-3,2-4,.61-.9-1.23.64-2.7,1.69-3.72,8.21-8,17.82-14.27,26.58-21.61,13.4-11.23,28.46-20,43.6-28.68,11.2-6.42,21.62-14.17,32.71-20.8,26.18-15.66,53-30.22,81.15-42,6.94-2.92,14.12-5.24,21.15-8,1.27-.5,3.41-.83,3.09-2.7-.28-1.62-2.25-.87-3.45-1.19-11.32-3-22.66-6-33.95-9.1-9.36-2.58-18.53-6.17-28.05-7.87C131.89,57,123.16,48.53,116.32,37.2a52.67,52.67,0,0,1-7.89-22.51c-.8-8.51,4.94-15,13.43-14.4a3,3,0,0,1,2.53,1.41c4.46,7.77,12.15,11.09,19.7,14.89a191.85,191.85,0,0,0,34.15,12.8c11.49,3.26,23.23,5.22,34.86,7.72C225.39,39.76,237.79,42,250,44.9a139.12,139.12,0,0,0,14.88,2.49c18.65,2.41,37.3,4.84,56,6.59,9.52.89,19.17.4,28.77.43,4.94,0,9.19,1.13,12.21,5.53,1.28,1.86,2.32,3.44,2.23,5.86a77.69,77.69,0,0,0,1.57,18.55c1.88,9.05-4.85,15.6-13.85,13.72-15.18-3.17-30.44-2.38-45.65-.51-11.3,1.4-22.58,3.17-33.77,5.28a277.32,277.32,0,0,0-33.21,8,89.85,89.85,0,0,1-12.63,3.29c-8.57,1.41-15.41,7.1-23.72,9.11-1.53.37-2.76,1.12-4.07-.42,6.68-5.18,17.08-4,21.83-13.22-4.42-.46-8.07,1.14-11.85,2.62-5.54,2.17-10.24,6-16.12,7.52q-16.75,4.29-33.33,9.21c-2.88.86-5.81,1.92-8,4.69-3,3.84-6.11,4.19-7.76,1.77l1.09-.35c-.11,0-.26-.14-.32-.1C144.08,135.14,143.86,135.34,143.63,135.51Z"/></svg>