<svg xmlns="http://www.w3.org/2000/svg" viewBox="0 0 50 70.58"><defs><style>.cls-1{fill:#e34e26;}.cls-2{fill:#ef662a;}.cls-3{fill:#fff;}.cls-4{fill:#ebebeb;}</style></defs><g id="Capa_2" data-name="Capa 2"><g id="Skills"><g id="ResponsiveWebDesign"><g id="LogosHtmlCssJs"><g id="Guides_to_delete" data-name="Guides to delete"><polygon class="cls-1" points="4.55 64.91 0 13.85 50 13.85 45.44 64.91 24.99 70.58 4.55 64.91"/><polygon class="cls-2" points="25 18.02 25 66.25 41.54 61.66 45.44 18.02 25 18.02"/><polygon class="cls-3" points="9.31 24.28 11 43.22 32.71 43.22 31.98 51.34 24.99 53.23 18.02 51.35 17.55 46.13 11.26 46.13 12.16 56.19 24.99 59.75 37.84 56.19 39.56 36.96 16.73 36.96 16.16 30.55 40.1 30.55 40.13 30.55 40.69 24.28 9.31 24.28"/><polygon class="cls-4" points="25 24.28 9.31 24.28 11 43.22 25 43.22 25 36.96 16.73 36.96 16.16 30.55 25 30.55 25 24.28"/><polygon class="cls-4" points="25 53.23 24.99 53.23 18.02 51.35 17.55 46.13 11.26 46.13 12.16 56.19 24.99 59.75 25 59.75 25 53.23"/></g></g></g></g><g id="Capa_5" data-name="Capa 5"><path class="cls-3" d="M8.66,0h1.65V3.91h3.75V0h1.65V9.69H14.06V5.34H10.31V9.69H8.66Z"/><path class="cls-3" d="M19.6,1.43H17V0h6.88V1.43H21.26V9.69H19.6Z"/><path class="cls-3" d="M32.65,5.9c0-1.7,0-3.63.07-4.69h-.06c-.43,1.91-1.55,5.72-2.42,8.48H28.79c-.65-2.32-1.79-6.58-2.2-8.51h-.07c.08,1.13.12,3.25.12,4.92V9.69H25.11V0h2.47c.78,2.47,1.76,6,2,7.47h0c.19-1.15,1.41-5,2.22-7.47h2.39V9.69h-1.6Z"/><path class="cls-3" d="M36.45,0H38.1V8.27h4.29L42.2,9.69H36.45Z"/></g></g></svg>