<svg xmlns="http://www.w3.org/2000/svg" viewBox="0 0 50 70.81"><defs><style>.cls-1{fill:#fff;}.cls-2{fill:#264de4;}.cls-3{fill:#ebebeb;}.cls-4{fill:#2965f1;}</style></defs><g id="Capa_2" data-name="Capa 2"><g id="Skills"><g id="ResponsiveWebDesign"><path class="cls-1" d="M21,6.85A3.43,3.43,0,0,1,17.33,10c-2.87,0-3.93-2.2-3.93-5S14.7,0,17.41,0a3.21,3.21,0,0,1,3.5,3.11H19.28c-.2-.92-.61-1.72-1.93-1.72-1.65,0-2.25,1.71-2.25,3.55s.53,3.64,2.27,3.64a1.93,1.93,0,0,0,2-1.73Z"/><path class="cls-1" d="M23.63,7a1.72,1.72,0,0,0,1.84,1.59c1.08,0,1.58-.52,1.58-1.34s-.51-1.33-2-1.78C23,4.85,22.25,4.09,22.25,2.7,22.25,1,23.55,0,25.32,0c2.16,0,3.08,1.22,3.19,2.71H26.88A1.43,1.43,0,0,0,25.3,1.33c-.93,0-1.39.46-1.39,1.2S24.39,3.58,25.77,4c2.36.72,3,1.69,3,3.06,0,1.59-1,2.88-3.35,2.88-2,0-3.27-1.07-3.39-2.94Z"/><path class="cls-1" d="M31.5,7a1.71,1.71,0,0,0,1.83,1.59c1.08,0,1.58-.52,1.58-1.34s-.5-1.33-2-1.78c-2.09-.62-2.84-1.38-2.84-2.77C30.11,1,31.41,0,33.18,0c2.17,0,3.09,1.22,3.19,2.71H34.74a1.43,1.43,0,0,0-1.58-1.38c-.93,0-1.39.46-1.39,1.2S32.25,3.58,33.63,4c2.37.72,3,1.69,3,3.06,0,1.59-1,2.88-3.35,2.88-2,0-3.27-1.07-3.39-2.94Z"/><polygon id="polygon2989" class="cls-2" points="24.97 70.81 4.55 65.14 0 14.1 50 14.1 45.45 65.13 24.97 70.81"/><polygon id="polygon2995" class="cls-3" points="10.07 24.53 10.63 30.79 25.76 30.79 25.76 24.53 25.74 24.53 10.07 24.53"/><polygon id="polygon2997" class="cls-3" points="25.76 53.46 25.73 53.47 18.76 51.59 18.32 46.59 14.93 46.59 12.03 46.59 12.91 56.42 25.73 59.98 25.76 59.97 25.76 53.46"/><polygon id="polygon2991" class="cls-4" points="42.31 61.88 46.2 18.27 25.76 18.27 25.76 66.47 42.31 61.88"/><polygon id="polygon2993" class="cls-3" points="11.19 37.2 11.75 43.46 25.76 43.46 25.76 37.2 11.19 37.2"/><polygon id="polygon3005" class="cls-1" points="40.29 37.2 41.42 24.53 25.74 24.53 25.74 30.79 34.56 30.79 33.99 37.2 25.74 37.2 25.74 43.46 33.45 43.46 32.72 51.58 25.74 53.47 25.74 59.98 38.57 56.42 38.67 55.36 40.14 38.88 40.29 37.2"/></g></g></g></svg>