<svg xmlns="http://www.w3.org/2000/svg" viewBox="0 0 50 64.31"><defs><style>.cls-1{fill:#f7df1e;}.cls-2{fill:#fff;}</style></defs><g id="Capa_2" data-name="Capa 2"><g id="Skills"><g id="ResponsiveWebDesign"><g id="LogosHtmlCssJs"><rect class="cls-1" y="14.31" width="50" height="50"/><path d="M36.1,54.85a5,5,0,0,0,4.51,2.78c1.89,0,3.09-1,3.09-2.26,0-1.56-1.24-2.11-3.32-3l-1.14-.49C36,50.45,33.76,48.7,33.76,45c0-3.42,2.61-6,6.68-6a6.74,6.74,0,0,1,6.49,3.66l-3.55,2.28a3.11,3.11,0,0,0-2.94-2,2,2,0,0,0-2.18,2c0,1.37.85,1.92,2.81,2.77l1.14.49c3.87,1.66,6.06,3.36,6.06,7.17,0,4.1-3.23,6.35-7.56,6.35s-7-2-8.31-4.66ZM20,55.25c.71,1.27,1.36,2.35,2.93,2.35s2.45-.59,2.45-2.87V39.21h4.56V54.79c0,4.73-2.77,6.88-6.81,6.88a7.09,7.09,0,0,1-6.85-4.17Z"/><path id="jsTexto" class="cls-2" d="M27.63,7a3.94,3.94,0,0,0,3.1,1.21c1.3,0,2.13-.41,2.13-1S32,6.26,30.58,5.86l-.79-.22C27.53,5,26,4.26,26,2.64S27.82,0,30.62,0c2,0,3.43.44,4.46,1.6l-2.44,1a2.39,2.39,0,0,0-2-.86c-.92,0-1.5.37-1.5.86s.58.84,1.93,1.21l.78.21C34.5,4.75,36,5.49,36,7.16s-2.22,2.78-5.2,2.78-4.79-.88-5.71-2Zm-11.08.17a2.38,2.38,0,0,0,2,1c1,0,1.68-.26,1.68-1.26V.11h3.14V6.93c0,2.07-1.9,3-4.68,3-2.52,0-4-.83-4.71-1.83Z"/></g></g></g></g></svg>