<svg xmlns="http://www.w3.org/2000/svg" viewBox="0 0 62.83 65.62"><defs><style>.cls-1{fill:#3178c6;}.cls-2,.cls-3{fill:#fff;}.cls-2{fill-rule:evenodd;}</style></defs><g id="Capa_2" data-name="Capa 2"><g id="Skills"><g id="ResponsiveWebDesign"><g id="LogosHtmlCssJs"><g id="Capa_27" data-name="Capa 27"><rect class="cls-1" x="6.24" y="15.62" width="50" height="50" rx="4.88"/><path class="cls-2" d="M37.2,55.37v4.88a10.57,10.57,0,0,0,2.83.92,18.84,18.84,0,0,0,3.42.3,16.33,16.33,0,0,0,3.32-.33,8.52,8.52,0,0,0,2.73-1.08A4.85,4.85,0,0,0,51.36,58a7.37,7.37,0,0,0,.69-3.12,6.57,6.57,0,0,0-.4-2.35,4.77,4.77,0,0,0-1.17-1.75,7.82,7.82,0,0,0-1.76-1.37,22.36,22.36,0,0,0-2.35-1.17c-.64-.27-1.17-.52-1.75-.77a7.43,7.43,0,0,1-1.27-.77,3.24,3.24,0,0,1-.83-.82,1.66,1.66,0,0,1-.3-1,1.62,1.62,0,0,1,.27-.91,2.21,2.21,0,0,1,.73-.69,3.49,3.49,0,0,1,1.17-.45A6.68,6.68,0,0,1,46,42.71a9.15,9.15,0,0,1,1.27.09,9.85,9.85,0,0,1,1.37.29,10.57,10.57,0,0,1,1.37.47,6.3,6.3,0,0,1,1.17.68V39.65A11.77,11.77,0,0,0,48.69,39a20.58,20.58,0,0,0-3-.2,15,15,0,0,0-3.32.37,7.6,7.6,0,0,0-2.73,1.17,5.67,5.67,0,0,0-1.86,2,5.8,5.8,0,0,0-.68,2.93A5.48,5.48,0,0,0,38.34,49a10.11,10.11,0,0,0,3.81,2.64c.67.27,1.27.55,1.85.81a8.2,8.2,0,0,1,1.47.82,3.47,3.47,0,0,1,1,.93,1.88,1.88,0,0,1,.37,1.17,1.8,1.8,0,0,1-.22.88,1.92,1.92,0,0,1-.69.7,4,4,0,0,1-1.18.47,6.89,6.89,0,0,1-1.66.17,8.88,8.88,0,0,1-3.12-.56A9.37,9.37,0,0,1,37,55.41ZM29,43.36h6.25v-4H17.76v4H24V61.23h5Z"/></g></g></g></g><g id="Capa_5" data-name="Capa 5"><path class="cls-3" d="M2.61,2H0V.57H6.88V2H4.27v8.26H2.61Z"/><path class="cls-3" d="M8.45,3C9.35,6.23,9.86,8,10,8.79h0c.2-.86.82-3.28,1.53-5.78h1.62l-2.4,7.56c-.73,2.29-1.5,2.62-2.7,2.62a4.36,4.36,0,0,1-.67-.06V11.76a4.4,4.4,0,0,0,.62,0c.67,0,1-.49,1.19-1.24L6.74,3Z"/><path class="cls-3" d="M15.7,9.55v3.53H14.1v-8c0-1,0-1.65,0-2.11h1.57c0,.24,0,.65,0,1a2.12,2.12,0,0,1,2.07-1.17c1.48,0,2.63,1.18,2.63,3.67s-1.27,3.84-2.94,3.84A1.85,1.85,0,0,1,15.7,9.55Zm3.07-3c0-1.63-.62-2.33-1.56-2.33-1.22,0-1.59.77-1.59,2.4,0,1.47.31,2.37,1.53,2.37C18.19,9,18.77,8.17,18.77,6.58Z"/><path class="cls-3" d="M23,7c0,1.08.42,2.07,1.52,2.07a1.32,1.32,0,0,0,1.34-1h1.57a2.85,2.85,0,0,1-3,2.29c-2.22,0-3.09-1.65-3.09-3.76,0-1.79.86-3.76,3.16-3.76s3,1.75,3,3.55c0,.08,0,.49,0,.58Zm3-1.12c0-1-.41-1.74-1.44-1.74s-1.45,1-1.49,1.74Z"/><path class="cls-3" d="M30.17,7.44A1.71,1.71,0,0,0,32,9c1.09,0,1.59-.51,1.59-1.33s-.51-1.34-2-1.78c-2.1-.63-2.84-1.39-2.84-2.78,0-1.71,1.29-2.69,3.06-2.69C34,.45,34.94,1.66,35,3.15H33.42a1.44,1.44,0,0,0-1.59-1.38c-.93,0-1.38.46-1.38,1.2s.47,1,1.86,1.47c2.36.72,3,1.69,3,3.06,0,1.59-1,2.88-3.34,2.88-2,0-3.28-1.07-3.4-2.94Z"/><path class="cls-3" d="M42.37,7.8a2.8,2.8,0,0,1-3,2.59c-2.08,0-3.08-1.37-3.08-3.75,0-2.23,1.16-3.77,3.18-3.77a2.69,2.69,0,0,1,2.88,2.65H40.76c-.09-.71-.43-1.36-1.3-1.36-1.07,0-1.52,1-1.52,2.42,0,1.75.55,2.53,1.49,2.53s1.16-.57,1.35-1.31Z"/><path class="cls-3" d="M43.66,5.47c0-1.18,0-2,0-2.46H45.2c0,.32,0,.78,0,1.34a2.22,2.22,0,0,1,2.17-1.46V4.58c-1.49,0-2.15.66-2.15,2.29v3.39h-1.6Z"/><path class="cls-3" d="M48.52,0h1.61V1.68H48.52Zm0,3h1.61v7.25H48.52Z"/><path class="cls-3" d="M53.55,9.55v3.53H52v-8c0-1,0-1.65,0-2.11h1.57c0,.24,0,.65,0,1a2.12,2.12,0,0,1,2.07-1.17c1.48,0,2.64,1.18,2.64,3.67S57,10.38,55.31,10.38A1.85,1.85,0,0,1,53.55,9.55Zm3.07-3c0-1.63-.61-2.33-1.55-2.33-1.22,0-1.59.77-1.59,2.4C53.48,8.12,53.79,9,55,9,56.05,9,56.62,8.17,56.62,6.58Z"/><path class="cls-3" d="M58.9,3h1V1h1.59V3h1.31V4.32H61.52v4c0,.54.13.76.71.76a2.38,2.38,0,0,0,.46,0V10.2a3.48,3.48,0,0,1-1.06.14c-1.24,0-1.7-.51-1.7-1.81V4.32h-1Z"/></g></g></svg>