<svg xmlns="http://www.w3.org/2000/svg" viewBox="0 0 50 58.18"><defs><style>.cls-1{fill:#61dafb;}</style></defs><g id="Capa_2" data-name="Capa 2"><g id="Skills"><g id="Frameworks"><g id="Logos"><path class="cls-1" d="M41.11,28.11h0c-.53-.18-1.07-.35-1.61-.5.09-.37.17-.73.25-1.1,1.22-5.92.42-10.68-2.3-12.25s-6.87.06-11.18,3.81c-.43.37-.84.76-1.25,1.15-.27-.26-.54-.52-.83-.77-4.51-4-9-5.7-11.75-4.12s-3.38,6-2.28,11.59c.1.55.23,1.11.36,1.66-.64.18-1.25.37-1.85.58C3.38,30,0,32.9,0,35.9S3.63,42.1,9.14,44q.67.23,1.35.42c-.14.59-.27,1.19-.39,1.78-1,5.51-.23,9.89,2.37,11.38s7.19,0,11.58-3.87c.35-.31.69-.63,1-1,.44.43.89.84,1.35,1.24,4.25,3.65,8.45,5.13,11.05,3.63s3.55-6.25,2.42-12c-.09-.43-.19-.88-.3-1.33l.93-.3C46.27,42.11,50,39,50,35.9S46.51,30,41.11,28.11ZM27.67,19.69c3.69-3.22,7.14-4.49,8.71-3.58h0c1.68,1,2.33,4.86,1.28,10-.07.33-.15.66-.23,1A50.17,50.17,0,0,0,30.75,26a48.9,48.9,0,0,0-4.23-5.28C26.9,20.38,27.28,20,27.67,19.69ZM14.76,38.46c.46.87.93,1.73,1.42,2.59s1,1.72,1.57,2.56a42.13,42.13,0,0,1-4.61-.74C13.58,41.45,14.13,40,14.76,38.46Zm0-5c-.62-1.47-1.15-2.92-1.59-4.32,1.43-.32,3-.58,4.54-.78-.54.83-1.05,1.67-1.54,2.52S15.21,32.56,14.76,33.43ZM15.9,36c.65-1.37,1.36-2.72,2.12-4h0q1.14-2,2.43-3.86c1.48-.12,3-.17,4.55-.17s3.07.05,4.56.17Q30.84,29.94,32,31.9t2.16,4Q33.13,38,32,40h0q-1.14,2-2.4,3.87c-1.48.11-3,.16-4.58.16s-3.07,0-4.53-.14Q19.18,42,18,40T15.9,36ZM33.83,41c.5-.87,1-1.75,1.45-2.65h0q.94,2.16,1.68,4.4a43.35,43.35,0,0,1-4.67.79c.53-.83,1-1.68,1.54-2.54Zm1.43-7.59q-.69-1.32-1.44-2.61h0c-.49-.84-1-1.67-1.52-2.5,1.59.21,3.12.47,4.56.8C36.4,30.59,35.86,32,35.26,33.44ZM25,22.27A45.49,45.49,0,0,1,28,25.82q-3-.13-5.91,0C23,24.54,24,23.35,25,22.27Zm-11.51-6.1c1.67-1,5.37.42,9.27,3.88q.38.33.75.69A50.07,50.07,0,0,0,19.27,26a51.41,51.41,0,0,0-6.67,1c-.13-.51-.25-1-.35-1.54h0C11.31,20.71,11.94,17.08,13.51,16.17ZM11.07,42.35,9.83,42A18.3,18.3,0,0,1,4,38.87a4.42,4.42,0,0,1-1.86-3c0-1.83,2.71-4.15,7.24-5.73.57-.19,1.14-.37,1.72-.54A49.38,49.38,0,0,0,13.54,36,51.23,51.23,0,0,0,11.07,42.35Zm11.57,9.74a18,18,0,0,1-5.59,3.5h0a4.38,4.38,0,0,1-3.51.13c-1.58-.91-2.23-4.42-1.34-9.13.11-.55.23-1.11.37-1.66a49.39,49.39,0,0,0,6.73,1,52.1,52.1,0,0,0,4.3,5.3C23.29,51.51,23,51.8,22.64,52.09Zm2.44-2.42c-1-1.09-2-2.3-3-3.6,1,0,1.94.06,2.93.06s2,0,3-.07a44.49,44.49,0,0,1-2.94,3.61Zm13,3a4.39,4.39,0,0,1-1.63,3.1c-1.58.91-5-.27-8.58-3.4-.42-.36-.84-.74-1.26-1.15a47.81,47.81,0,0,0,4.19-5.32,49.86,49.86,0,0,0,6.77-1c.1.41.19.81.27,1.21h0a17.86,17.86,0,0,1,.24,6.6ZM39.87,42h0l-.84.26a50.92,50.92,0,0,0-2.53-6.33,51.47,51.47,0,0,0,2.43-6.25c.51.15,1,.31,1.48.47,4.63,1.6,7.45,3.95,7.45,5.77s-3,4.44-8,6.08Z"/><path class="cls-1" d="M25,31.43a4.47,4.47,0,1,1-4.46,4.47h0A4.46,4.46,0,0,1,25,31.43h0"/><g id="ReactVectorsFont"><path class="cls-1" d="M8.26,4.62V8.06H6.35V0h4.27c2,0,3.48.74,3.48,2.15,0,1.12-.85,1.64-1.75,1.88a1.82,1.82,0,0,1,1.54,2v.19A8.93,8.93,0,0,0,14,8.06H12.16A5.08,5.08,0,0,1,12,6.18V6c0-1-.5-1.36-2.06-1.36Zm0-1.15h1.79c1.19,0,2.11-.24,2.11-1.21,0-.79-.75-1.12-1.79-1.12H8.26Z"/><path class="cls-1" d="M17.32,5.35a1.61,1.61,0,0,0,1.79,1.72,1.5,1.5,0,0,0,1.56-.81h1.85c-.35.92-1.26,1.91-3.48,1.91-2.61,0-3.63-1.37-3.63-3.13,0-1.49,1-3.13,3.72-3.13s3.5,1.46,3.5,3c0,.06,0,.4,0,.48Zm3.47-.93c0-.8-.47-1.45-1.69-1.45a1.53,1.53,0,0,0-1.75,1.45Z"/><path class="cls-1" d="M30.44,6.57a9.17,9.17,0,0,0,.12,1.49H28.89a3.65,3.65,0,0,1-.12-.8,2.7,2.7,0,0,1-2.37.91c-2,0-2.71-1-2.71-1.84s.95-2,3.83-2h1.07V3.88c0-.52-.21-1-1.32-1s-1.33.37-1.43.89H24c.1-1,.88-1.89,3.29-1.89,1.87,0,3.14.5,3.14,2ZM28.65,5.28h-1.1c-1.65,0-2,.49-2,1s.39.87,1.28.87c1.4,0,1.78-.69,1.78-1.69Z"/><path class="cls-1" d="M39.21,6c-.28,1.2-1.31,2.15-3.5,2.15-2.45,0-3.63-1.14-3.63-3.12s1.37-3.14,3.74-3.14c2.53,0,3.31,1.31,3.38,2.21H37.32A1.35,1.35,0,0,0,35.79,3C34.53,3,34,3.82,34,5c0,1.46.64,2.1,1.74,2.1A1.45,1.45,0,0,0,37.33,6Z"/><path class="cls-1" d="M40,2h1.21V.35h1.87V2h1.53V3.12H43.08V6.44c0,.45.15.63.83.63a3.26,3.26,0,0,0,.54,0V8a6.25,6.25,0,0,1-1.24.11c-1.45,0-2-.43-2-1.51V3.12H40Z"/></g></g></g></g></g></svg>