<svg xmlns="http://www.w3.org/2000/svg" viewBox="0 0 74.59 45"><defs><style>.cls-1{fill:#fff;}</style></defs><g id="Capa_2" data-name="Capa 2"><g id="Skills"><g id="Frameworks"><g id="Logos"><path id="Nextjs" class="cls-1" d="M17.6,11.74H31.67v1.11H18.89v8.42h12v1.12h-12v9.24H31.82v1.12H17.6Zm15.33,0h1.49L41.05,21l6.77-9.24L57,0,41.9,22l7.79,10.8H48.14l-7.09-9.83-7.12,9.83H32.4L40.26,22Zm17.32,1.11V11.74h16v1.11H58.9v19.9H57.61V12.85ZM0,11.74H1.61L23.84,45,14.65,32.75,1.35,13.33,1.29,32.75H0ZM66.15,31.29a.47.47,0,0,1,0-.93.47.47,0,0,1,0,.93Zm1.27-1.23h.69a.63.63,0,0,0,.68.63c.45,0,.71-.28.71-.78v-3.2h.7v3.2a1.3,1.3,0,0,1-1.4,1.44,1.26,1.26,0,0,1-1.38-1.29Zm3.7,0h.7c.06.43.48.7,1.08.7s1-.29,1-.69-.26-.55-.86-.7l-.59-.14c-.82-.19-1.19-.58-1.19-1.25s.66-1.34,1.65-1.34a1.47,1.47,0,0,1,1.63,1.3h-.68a.87.87,0,0,0-1-.68c-.56,0-.93.26-.93.67s.24.51.83.65l.5.12c.93.22,1.31.6,1.31,1.28,0,.86-.67,1.41-1.74,1.41s-1.68-.52-1.73-1.33Z"/></g></g></g></g></svg>