<svg xmlns="http://www.w3.org/2000/svg" viewBox="0 0 86.03 58.66"><defs><style>.cls-1{fill:#61dafb;}</style></defs><g id="Capa_2" data-name="Capa 2"><g id="Skills"><g id="Frameworks"><g id="Logos"><g id="ReactNative"><path class="cls-1" d="M58.78,28.59h0c-.53-.18-1.07-.35-1.61-.51.09-.36.17-.73.25-1.09,1.22-5.92.42-10.68-2.3-12.25s-6.87.06-11.18,3.81c-.43.37-.84.75-1.25,1.14-.27-.26-.54-.51-.83-.76-4.51-4-9-5.7-11.75-4.13s-3.38,6-2.28,11.6c.1.55.23,1.1.36,1.65-.64.18-1.25.38-1.85.58-5.29,1.85-8.67,4.74-8.67,7.74s3.63,6.21,9.14,8.09c.45.16.9.3,1.35.43-.14.59-.27,1.18-.39,1.78-1,5.51-.23,9.88,2.37,11.38s7.19,0,11.58-3.88c.35-.3.69-.62,1-1,.44.43.89.84,1.35,1.24,4.25,3.65,8.45,5.13,11,3.63s3.55-6.26,2.42-12c-.09-.44-.19-.88-.3-1.34l.93-.29c5.73-1.9,9.46-5,9.46-8.11S64.18,30.45,58.78,28.59ZM45.34,20.16C49,17,52.48,15.68,54.05,16.59h0c1.68,1,2.33,4.86,1.28,10-.07.34-.15.67-.23,1a51.88,51.88,0,0,0-6.68-1.06,49.79,49.79,0,0,0-4.23-5.27C44.56,20.86,45,20.5,45.34,20.16ZM32.43,38.94c.46.87.93,1.73,1.42,2.58s1,1.73,1.57,2.57a44.68,44.68,0,0,1-4.61-.74C31.25,41.92,31.8,40.44,32.43,38.94Zm0-5c-.62-1.47-1.15-2.92-1.59-4.32a45.87,45.87,0,0,1,4.53-.78q-.79,1.23-1.53,2.52T32.43,33.91Zm1.14,2.51q1-2.06,2.12-4h0q1.14-2,2.43-3.86c1.48-.11,3-.17,4.55-.17s3.07.06,4.56.17q1.27,1.89,2.41,3.85c.76,1.32,1.48,2.65,2.16,4q-1,2.07-2.15,4h0q-1.14,2-2.4,3.87c-1.48.11-3,.16-4.58.16s-3.07,0-4.53-.14q-1.29-1.89-2.44-3.88C34.94,39.14,34.23,37.79,33.57,36.42ZM51.5,41.51c.5-.87,1-1.76,1.45-2.65h0q.94,2.14,1.68,4.4a46,46,0,0,1-4.67.79c.53-.84,1-1.68,1.54-2.54Zm1.43-7.6c-.46-.87-.94-1.74-1.44-2.6h0c-.49-.84-1-1.68-1.52-2.5,1.59.2,3.12.47,4.56.8C54.07,31.07,53.53,32.51,52.93,33.91ZM42.69,22.74a45.64,45.64,0,0,1,3,3.56,58.25,58.25,0,0,0-5.91,0A45.42,45.42,0,0,1,42.69,22.74ZM31.18,16.65c1.67-1,5.37.41,9.27,3.88q.38.33.75.69a50.07,50.07,0,0,0-4.26,5.27,51.83,51.83,0,0,0-6.68,1c-.12-.51-.24-1-.34-1.54h0C29,21.18,29.61,17.56,31.18,16.65ZM28.74,42.83c-.42-.12-.83-.25-1.24-.39a17.91,17.91,0,0,1-5.83-3.1,4.4,4.4,0,0,1-1.86-3c0-1.82,2.71-4.14,7.24-5.72.57-.2,1.14-.38,1.72-.54a48.68,48.68,0,0,0,2.44,6.31A50.77,50.77,0,0,0,28.74,42.83Zm11.57,9.74a18.17,18.17,0,0,1-5.59,3.5h0a4.42,4.42,0,0,1-3.51.13c-1.58-.91-2.23-4.42-1.34-9.13.11-.56.23-1.11.37-1.66a51,51,0,0,0,6.73,1,53.23,53.23,0,0,0,4.3,5.3C41,52,40.64,52.28,40.31,52.57Zm2.44-2.42c-1-1.09-2-2.3-3-3.6,1,0,1.94.06,2.93.06s2,0,3-.07a46.29,46.29,0,0,1-2.94,3.61Zm13,3a4.42,4.42,0,0,1-1.63,3.11c-1.58.91-5-.28-8.58-3.4-.42-.36-.84-.74-1.26-1.15a51,51,0,0,0,4.19-5.32,48.37,48.37,0,0,0,6.77-1c.1.42.19.82.27,1.21h0a17.88,17.88,0,0,1,.24,6.6Zm1.82-10.67h0l-.84.27a51.06,51.06,0,0,0-2.53-6.34,51.33,51.33,0,0,0,2.43-6.24c.51.15,1,.31,1.48.47,4.63,1.59,7.45,4,7.45,5.76s-3,4.44-8,6.08Z"/><path class="cls-1" d="M42.67,31.91a4.47,4.47,0,1,1-4.47,4.46h0a4.47,4.47,0,0,1,4.47-4.46h0"/><g id="ReactVectorsFont"><path class="cls-1" d="M1.91,5.09V8.54H0V.48H4.28c2,0,3.47.73,3.47,2.14A2,2,0,0,1,6,4.51a1.8,1.8,0,0,1,1.53,2v.19a9.66,9.66,0,0,0,.15,1.87H5.81a5.42,5.42,0,0,1-.2-1.89V6.46c0-1-.49-1.37-2.06-1.37ZM1.91,4h1.8c1.19,0,2.1-.24,2.1-1.21C5.81,2,5.06,1.62,4,1.62H1.91Z"/><path class="cls-1" d="M11,5.82a1.62,1.62,0,0,0,1.79,1.73,1.53,1.53,0,0,0,1.57-.81h1.85c-.36.92-1.27,1.91-3.48,1.91-2.62,0-3.63-1.37-3.63-3.13,0-1.49,1-3.13,3.71-3.13s3.51,1.45,3.51,2.95c0,.07,0,.41,0,.48Zm3.47-.93c0-.79-.47-1.44-1.69-1.44A1.53,1.53,0,0,0,11,4.89Z"/><path class="cls-1" d="M24.1,7.05a10.45,10.45,0,0,0,.11,1.49H22.54a4.36,4.36,0,0,1-.12-.8,2.66,2.66,0,0,1-2.36.9c-2,0-2.72-1-2.72-1.83s.95-2,3.84-2h1.06V4.36c0-.52-.21-1-1.32-1s-1.33.37-1.43.89H17.66c.1-1,.89-1.89,3.3-1.89,1.87,0,3.14.5,3.14,1.95ZM22.3,5.76H21.2c-1.65,0-2,.49-2,.94s.39.87,1.28.87c1.4,0,1.78-.68,1.78-1.69Z"/><path class="cls-1" d="M32.86,6.49c-.27,1.2-1.3,2.16-3.5,2.16-2.44,0-3.62-1.14-3.62-3.13s1.36-3.13,3.74-3.13,3.31,1.31,3.38,2.2H31a1.35,1.35,0,0,0-1.53-1.13c-1.26,0-1.78.83-1.78,2,0,1.45.64,2.1,1.75,2.1A1.45,1.45,0,0,0,31,6.49Z"/><path class="cls-1" d="M33.65,2.51h1.21V.83h1.88V2.51h1.53V3.59H36.74V6.92c0,.44.14.63.83.63a5,5,0,0,0,.54,0v1a5.68,5.68,0,0,1-1.24.11c-1.46,0-2-.42-2-1.5V3.59H33.65Z"/><path class="cls-1" d="M43.66,8.54V.48h2.51c3.64,5.19,4.19,6,4.37,6.35h0c-.11-1-.12-2.31-.12-3.63V.48h1.79V8.54H49.86C46,2.86,45.57,2.27,45.38,2h0c.08,1,.08,2.41.08,3.85V8.54Z"/><path class="cls-1" d="M60.66,7.05a10.45,10.45,0,0,0,.11,1.49H59.1a3.65,3.65,0,0,1-.12-.8,2.66,2.66,0,0,1-2.36.9c-2,0-2.72-1-2.72-1.83s1-2,3.84-2H58.8V4.36c0-.52-.21-1-1.32-1s-1.33.37-1.43.89H54.22c.1-1,.89-1.89,3.3-1.89,1.87,0,3.14.5,3.14,1.95Zm-1.8-1.29h-1.1c-1.65,0-2,.49-2,.94s.39.87,1.28.87c1.4,0,1.78-.68,1.78-1.69Z"/><path class="cls-1" d="M61.68,2.51h1.21V.83h1.88V2.51H66.3V3.59H64.77V6.92c0,.44.15.63.83.63a5,5,0,0,0,.54,0v1a5.68,5.68,0,0,1-1.24.11c-1.46,0-2-.42-2-1.5V3.59H61.68Z"/><path class="cls-1" d="M67.62,0H69.5V1.4H67.62Zm0,2.51H69.5v6H67.62Z"/><path class="cls-1" d="M72.71,2.51a46.55,46.55,0,0,1,1.77,4.7h0c.2-.86,1.14-2.9,1.86-4.7h1.85l-2.8,6h-2l-2.72-6Z"/><path class="cls-1" d="M80.71,5.82A1.62,1.62,0,0,0,82.5,7.55c1.1,0,1.44-.53,1.57-.81h1.85c-.36.92-1.26,1.91-3.48,1.91-2.61,0-3.63-1.37-3.63-3.13,0-1.49,1-3.13,3.71-3.13S86,3.84,86,5.34c0,.07,0,.41,0,.48Zm3.47-.93c0-.79-.47-1.44-1.69-1.44a1.52,1.52,0,0,0-1.74,1.44Z"/></g></g></g></g></g></g></svg>