<svg xmlns="http://www.w3.org/2000/svg" viewBox="0 0 58.78 45.33"><defs><style>.cls-1{fill:#07b6d5;}.cls-2{fill:#fff;}</style></defs><g id="Capa_2" data-name="Capa 2"><g id="Skills"><g id="Frameworks"><g id="Logos"><g id="TailwinCss"><path class="cls-1" d="M28.9,18.31c-7.92.26-10.27,5.91-10.81,9a7.74,7.74,0,0,1,6.18-3.63c3.8,0,6.69,4.24,8.45,5.56a13.37,13.37,0,0,0,12.11,2c4.51-1.37,6.6-6.16,7.06-8.43-2.18,3-5.49,4.75-9.58,2.65C39.49,24,37.38,18.05,28.9,18.31Z"/><path class="cls-1" d="M17.7,31.77c-7.92.25-10.27,5.91-10.81,9a7.77,7.77,0,0,1,6.18-3.63c3.79,0,6.69,4.24,8.45,5.57a13.37,13.37,0,0,0,12.11,2c4.51-1.38,6.6-6.16,7.06-8.43-2.18,3-5.49,4.74-9.59,2.64C28.29,37.46,26.18,31.5,17.7,31.77Z"/><g id="TailwinCSSVectorFont"><path class="cls-2" d="M2.24,1.67H0V.48H5.93V1.67H3.68V8.54H2.24Z"/><path class="cls-2" d="M10.41,7.05a14.56,14.56,0,0,0,.08,1.49H9.27a5.73,5.73,0,0,1-.09-.8,1.77,1.77,0,0,1-1.74.9,1.76,1.76,0,0,1-2-1.83c0-1,.69-2,2.81-2h.78V4.36c0-.52-.16-1-1-1a.9.9,0,0,0-1,.89H5.69c.07-1,.65-1.89,2.42-1.89,1.37,0,2.3.5,2.3,1.95ZM9.09,5.76h-.8c-1.21,0-1.44.49-1.44.94a.83.83,0,0,0,.94.87c1,0,1.3-.68,1.3-1.69Z"/><path class="cls-2" d="M12,0h1.39V1.4H12Zm0,2.51h1.39v6H12Z"/><path class="cls-2" d="M14.94,8.54V0h1.39V8.54Z"/><path class="cls-2" d="M18.74,2.51c.56,2.43.9,3.85,1,4.59h0c.14-.71.51-2.1,1.15-4.59H22.2c.58,2.2,1,3.87,1.1,4.55h0c.12-.63.38-1.67,1.09-4.55h1.37l-1.8,6h-1.4c-.47-1.88-.9-3.39-1.05-4.26h0c-.16.88-.64,2.58-1.13,4.26H19l-1.71-6Z"/><path class="cls-2" d="M26.7,0h1.38V1.4H26.7Zm0,2.51h1.38v6H26.7Z"/><path class="cls-2" d="M29.65,4.39c0-1.25,0-1.62,0-1.88H31a7.64,7.64,0,0,1,.05.83,1.82,1.82,0,0,1,1.71-.95c1.22,0,1.91.75,1.91,2.22V8.54H33.27V4.86c0-.75-.22-1.31-1-1.31S31,4.09,31,5.22V8.54H29.65Z"/><path class="cls-2" d="M45.3,6.07a2.91,2.91,0,0,1-3.12,2.58c-2.48,0-3.39-1.82-3.39-4.16S39.91.37,42.24.37a2.74,2.74,0,0,1,3,2.58h-1.4a1.56,1.56,0,0,0-1.67-1.43c-1.42,0-1.93,1.43-1.93,3s.45,3,2,3A1.65,1.65,0,0,0,43.9,6.07Z"/><path class="cls-2" d="M47.61,6.19a1.46,1.46,0,0,0,1.58,1.33c.93,0,1.36-.43,1.36-1.11s-.44-1.12-1.69-1.49c-1.8-.51-2.44-1.15-2.44-2.31,0-1.42,1.12-2.24,2.64-2.24,1.86,0,2.65,1,2.75,2.25H50.4A1.22,1.22,0,0,0,49,1.47c-.8,0-1.19.38-1.19,1s.4.86,1.6,1.22c2,.6,2.55,1.4,2.55,2.54,0,1.32-.89,2.4-2.88,2.4-1.73,0-2.82-.89-2.92-2.45Z"/><path class="cls-2" d="M54.38,6.19A1.47,1.47,0,0,0,56,7.52c.94,0,1.36-.43,1.36-1.11s-.43-1.12-1.68-1.49c-1.81-.51-2.45-1.15-2.45-2.31,0-1.42,1.12-2.24,2.64-2.24,1.87,0,2.66,1,2.75,2.25h-1.4a1.23,1.23,0,0,0-1.37-1.15c-.8,0-1.19.38-1.19,1s.41.86,1.6,1.22c2,.6,2.56,1.4,2.56,2.54,0,1.32-.89,2.4-2.88,2.4-1.73,0-2.82-.89-2.93-2.45Z"/></g></g></g></g></g></g></svg>