<svg xmlns="http://www.w3.org/2000/svg" viewBox="0 0 50 73.79"><defs><style>.cls-1{fill:#de4c36;}.cls-2{fill:#fff;}</style></defs><g id="Capa_2" data-name="Capa 2"><g id="Skills"><g id="OtherTools"><g id="Capa_25" data-name="Capa 25"><g id="GitLogo"><path class="cls-1" d="M49.05,46.58,27.23,24.75a3.21,3.21,0,0,0-4.55,0h0l-4.54,4.54L23.89,35a3.82,3.82,0,0,1,4.85,4.87l5.54,5.54a3.83,3.83,0,0,1,3.95,6.33h0A3.83,3.83,0,0,1,32,47.6l-5.16-5.16V56a4.36,4.36,0,0,1,1,.72,3.84,3.84,0,0,1,0,5.42h0a3.83,3.83,0,0,1-5.42-5.42,4.1,4.1,0,0,1,1.25-.84V42.19a3.45,3.45,0,0,1-1.25-.84,3.83,3.83,0,0,1-.83-4.18L15.93,31.5l-15,15A3.19,3.19,0,0,0,1,51H1L22.77,72.85a3.21,3.21,0,0,0,4.55,0L49,51.13a3.18,3.18,0,0,0,0-4.55"/></g><path id="gitFont" class="cls-2" d="M19.09,5.62a1.33,1.33,0,0,0-1.51,1.44c0,.77.42,1.31,1.46,1.31A1.33,1.33,0,0,0,20.52,7a1.29,1.29,0,0,0-1.43-1.41Zm-1.74,7.23a1.43,1.43,0,0,0-.41.83c0,.63.81.82,1.91.82.91,0,2.15-.06,2.15-.91,0-.51-.6-.54-1.35-.58l-2.3-.16ZM22,5.66a2.55,2.55,0,0,1,.58,1.6C22.6,9,21.23,10,19.25,10A4.94,4.94,0,0,1,18,9.88l-.52.84,1.54.09c2.72.18,4.33.26,4.33,2.35C23.35,15,21.76,16,19,16s-3.94-.73-3.94-2a2.05,2.05,0,0,1,.86-1.61,1,1,0,0,1-.69-1,1.4,1.4,0,0,1,.46-1c.28-.3.59-.6,1-.94a2.52,2.52,0,0,1-1.35-2.36c0-1.81,1.2-3.06,3.61-3.06a5.17,5.17,0,0,1,1.45.16h3.07V5.56L22,5.66ZM26.23,2.8a1.29,1.29,0,0,1-1.41-1.42A1.27,1.27,0,0,1,26.23,0a1.28,1.28,0,0,1,1.44,1.38A1.3,1.3,0,0,1,26.23,2.8Zm-2,9.47V11l.81-.11c.22,0,.25-.08.25-.31V6c0-.18-.05-.28-.21-.33l-.85-.3.17-1.28h3.27V10.6c0,.25,0,.28.25.31l.8.12v1.24Zm10.72-.61a6.32,6.32,0,0,1-2.57.63c-1.87,0-2.58-.76-2.58-2.54V5.62c0-.09,0-.15-.12-.15H28.54V4.06c1.39-.15,1.94-.85,2.11-2.56h1.5V3.73c0,.12,0,.16.13.16h2.21V5.46H32.15V9.23c0,.93.22,1.29,1.07,1.29a3.78,3.78,0,0,0,1.27-.25l.43,1.39"/></g></g></g></g></svg>