<svg xmlns="http://www.w3.org/2000/svg" viewBox="0 0 49.86 69.05"><defs><style>.cls-1{fill:#56b3b4;}.cls-2{fill:#ea5e5e;}.cls-3{fill:#bf85bf;}.cls-4{fill:#f7ba3e;}.cls-5{fill:#d0d4d8;opacity:0.5;isolation:isolate;}.cls-6{fill:#fff;}</style></defs><g id="Capa_2" data-name="Capa 2"><g id="Skills"><g id="OtherTools"><g id="Capa_25" data-name="Capa 25"><g id="Page-1"><g id="prettier-icon-light"><g id="Icon-_Light_" data-name="Icon-(Light)"><g id="Group"><path id="Rectangle" class="cls-1" d="M35.14,32.62h2.15a1.07,1.07,0,1,1,0,2.14H35.14a1.07,1.07,0,0,1,0-2.14Z"/><path id="Rectangle-2" data-name="Rectangle" class="cls-2" d="M3,66.91H13.72a1.07,1.07,0,1,1,0,2.14H3a1.07,1.07,0,0,1,0-2.14Z"/><path id="Rectangle-3" data-name="Rectangle" class="cls-3" d="M28.72,49.77h6.42a1.07,1.07,0,1,1,0,2.14H28.72a1.07,1.07,0,0,1,0-2.14Z"/><path id="Rectangle-4" data-name="Rectangle" class="cls-2" d="M15.86,49.77h8.57a1.07,1.07,0,1,1,0,2.14H15.86a1.07,1.07,0,0,1,0-2.14Z"/><path id="Rectangle-5" data-name="Rectangle" class="cls-1" d="M3,49.77h8.57a1.07,1.07,0,1,1,0,2.14H3a1.07,1.07,0,1,1,0-2.14Z"/><path id="Rectangle-6" data-name="Rectangle" class="cls-3" d="M3,58.34H13.72a1.07,1.07,0,1,1,0,2.14H3a1.07,1.07,0,1,1,0-2.14Z"/><path id="Rectangle-7" data-name="Rectangle" class="cls-3" d="M3,41.19H13.72a1.08,1.08,0,0,1,0,2.15H3a1.08,1.08,0,0,1,0-2.15Z"/><path id="Rectangle-8" data-name="Rectangle" class="cls-4" d="M13.72,28.34H35.14a1.07,1.07,0,1,1,0,2.14H13.72a1.07,1.07,0,1,1,0-2.14Z"/><path id="Rectangle-9" data-name="Rectangle" class="cls-2" d="M3,28.34H9.43a1.07,1.07,0,1,1,0,2.14H3a1.07,1.07,0,1,1,0-2.14Z"/><path id="Rectangle-10" data-name="Rectangle" class="cls-4" d="M11.57,62.62h2.15a1.08,1.08,0,0,1,0,2.15H11.57a1.08,1.08,0,0,1,0-2.15Z"/><path id="Rectangle-11" data-name="Rectangle" class="cls-1" d="M11.57,36.91h2.15a1.07,1.07,0,0,1,0,2.14H11.57a1.07,1.07,0,0,1,0-2.14Z"/><path id="Rectangle-12" data-name="Rectangle" class="cls-1" d="M3,62.62H7.29a1.08,1.08,0,0,1,0,2.15H3a1.08,1.08,0,0,1,0-2.15Z"/><path id="Rectangle-13" data-name="Rectangle" class="cls-4" d="M3,36.91H7.29a1.07,1.07,0,0,1,0,2.14H3a1.07,1.07,0,0,1,0-2.14Z"/><path id="Rectangle-14" data-name="Rectangle" class="cls-5" d="M30.86,62.62H33a1.08,1.08,0,0,1,0,2.15H30.86a1.08,1.08,0,0,1,0-2.15Z"/><path id="Rectangle-15" data-name="Rectangle" class="cls-5" d="M18,62.62h8.57a1.08,1.08,0,0,1,0,2.15H18a1.08,1.08,0,0,1,0-2.15Z"/><path id="Rectangle-16" data-name="Rectangle" class="cls-5" d="M37.29,62.62h8.57a1.08,1.08,0,0,1,0,2.15H37.29a1.08,1.08,0,0,1,0-2.15Z"/><path id="Rectangle-17" data-name="Rectangle" class="cls-1" d="M20.14,45.48H37.29a1.07,1.07,0,1,1,0,2.14H20.14a1.07,1.07,0,0,1,0-2.14Z"/><path id="Rectangle-18" data-name="Rectangle" class="cls-4" d="M9.43,45.48h6.43a1.07,1.07,0,1,1,0,2.14H9.43a1.07,1.07,0,1,1,0-2.14Z"/><path id="Rectangle-19" data-name="Rectangle" class="cls-2" d="M3,45.48H5.14a1.07,1.07,0,1,1,0,2.14H3a1.07,1.07,0,1,1,0-2.14Z"/><path id="Rectangle-20" data-name="Rectangle" class="cls-3" d="M22.29,32.62h8.57a1.07,1.07,0,0,1,0,2.14H22.29a1.07,1.07,0,1,1,0-2.14Z"/><path id="Rectangle-21" data-name="Rectangle" class="cls-1" d="M3,32.62H18a1.07,1.07,0,0,1,0,2.14H3a1.07,1.07,0,1,1,0-2.14Z"/><path id="Rectangle-22" data-name="Rectangle" class="cls-4" d="M9.43,54.05H28.72a1.07,1.07,0,0,1,0,2.14H9.43a1.07,1.07,0,0,1,0-2.14Z"/><path id="Rectangle-23" data-name="Rectangle" class="cls-3" d="M3,54.05H5.14a1.07,1.07,0,0,1,0,2.14H3a1.07,1.07,0,0,1,0-2.14Z"/><path id="Rectangle-24" data-name="Rectangle" class="cls-2" d="M28.72,36.91H39.43a1.07,1.07,0,0,1,0,2.14H28.72a1.07,1.07,0,0,1,0-2.14Z"/><path id="Rectangle-25" data-name="Rectangle" class="cls-4" d="M28.72,41.19H39.43a1.08,1.08,0,0,1,0,2.15H28.72a1.08,1.08,0,0,1,0-2.15Z"/><path id="Rectangle-26" data-name="Rectangle" class="cls-1" d="M3,24.05H28.72a1.07,1.07,0,0,1,0,2.14H3a1.07,1.07,0,0,1,0-2.14Z"/><path id="Rectangle-27" data-name="Rectangle" class="cls-5" d="M33,24.05H45.86a1.07,1.07,0,0,1,0,2.14H33a1.07,1.07,0,0,1,0-2.14Z"/><path id="Rectangle-28" data-name="Rectangle" class="cls-5" d="M33,54.05h4.29a1.07,1.07,0,0,1,0,2.14H33a1.07,1.07,0,0,1,0-2.14Z"/><path id="Rectangle-29" data-name="Rectangle" class="cls-5" d="M41.57,54.05h4.29a1.07,1.07,0,0,1,0,2.14H41.57a1.07,1.07,0,0,1,0-2.14Z"/><path id="Rectangle-30" data-name="Rectangle" class="cls-5" d="M39.43,49.77h6.43a1.07,1.07,0,0,1,0,2.14H39.43a1.07,1.07,0,0,1,0-2.14Z"/><path id="Rectangle-31" data-name="Rectangle" class="cls-5" d="M39.43,28.34h6.43a1.07,1.07,0,0,1,0,2.14H39.43a1.07,1.07,0,0,1,0-2.14Z"/><path id="Rectangle-32" data-name="Rectangle" class="cls-5" d="M41.57,45.48h4.29a1.07,1.07,0,0,1,0,2.14H41.57a1.07,1.07,0,1,1,0-2.14Z"/><path id="Rectangle-33" data-name="Rectangle" class="cls-5" d="M41.57,32.62h4.29a1.07,1.07,0,0,1,0,2.14H41.57a1.07,1.07,0,1,1,0-2.14Z"/><path id="Rectangle-34" data-name="Rectangle" class="cls-5" d="M43.72,36.91h2.14a1.07,1.07,0,0,1,0,2.14H43.72a1.07,1.07,0,0,1,0-2.14Z"/><path id="Rectangle-35" data-name="Rectangle" class="cls-5" d="M43.72,41.19h2.14a1.08,1.08,0,0,1,0,2.15H43.72a1.08,1.08,0,0,1,0-2.15Z"/><path id="Rectangle-36" data-name="Rectangle" class="cls-5" d="M26.57,58.34H45.86a1.07,1.07,0,1,1,0,2.14H26.57a1.07,1.07,0,1,1,0-2.14Z"/><path id="Rectangle-37" data-name="Rectangle" class="cls-5" d="M18,58.34h4.29a1.07,1.07,0,1,1,0,2.14H18a1.07,1.07,0,1,1,0-2.14Z"/><path id="Rectangle-38" data-name="Rectangle" class="cls-5" d="M35.14,66.91H45.86a1.07,1.07,0,0,1,0,2.14H35.14a1.07,1.07,0,0,1,0-2.14Z"/><path id="Rectangle-39" data-name="Rectangle" class="cls-5" d="M18,66.91H30.86a1.07,1.07,0,0,1,0,2.14H18a1.07,1.07,0,0,1,0-2.14Z"/><path id="Rectangle-40" data-name="Rectangle" class="cls-5" d="M18,36.91h6.43a1.07,1.07,0,0,1,0,2.14H18a1.07,1.07,0,0,1,0-2.14Z"/><path id="Rectangle-41" data-name="Rectangle" class="cls-5" d="M18,41.19h6.43a1.08,1.08,0,0,1,0,2.15H18a1.08,1.08,0,0,1,0-2.15Z"/></g></g></g></g><g id="PretierFonVectors"><path class="cls-6" d="M0,.65H3.93C6,.65,7.7,1.71,7.7,3.86s-1.63,3.38-4,3.38H2v4.41H0Zm2,5H3.63c1.27,0,2.09-.47,2.09-1.8s-.83-1.68-2-1.68H2Z"/><path class="cls-6" d="M9.07,6.21c0-1.34,0-2.28,0-2.79h1.84c0,.37,0,.89,0,1.52a2.62,2.62,0,0,1,2.55-1.66V5.2C11.73,5.21,11,6,11,7.8v3.85H9.07Z"/><path class="cls-6" d="M16.14,7.94c0,1.23.49,2.35,1.79,2.35a1.5,1.5,0,0,0,1.56-1.1h1.86a3.35,3.35,0,0,1-3.49,2.6c-2.61,0-3.63-1.87-3.63-4.26,0-2,1-4.27,3.72-4.27s3.51,2,3.51,4c0,.09,0,.55,0,.65Zm3.47-1.26c0-1.09-.47-2-1.69-2s-1.7,1.16-1.75,2Z"/><path class="cls-6" d="M22.18,3.42h1.21V1.13h1.88V3.42H26.8V4.9H25.27V9.44c0,.6.14.86.82.86a3.48,3.48,0,0,0,.55,0v1.33a4.85,4.85,0,0,1-1.24.15c-1.46,0-2-.58-2-2.06V4.9H22.18Z"/><path class="cls-6" d="M27.15,3.42h1.22V1.13h1.87V3.42h1.53V4.9H30.24V9.44c0,.6.15.86.83.86a3.27,3.27,0,0,0,.54,0v1.33a4.75,4.75,0,0,1-1.24.15c-1.46,0-2-.58-2-2.06V4.9H27.15Z"/><path class="cls-6" d="M33.09,0H35V1.91H33.09Zm0,3.42H35v8.23H33.09Z"/><path class="cls-6" d="M38.52,7.94c0,1.23.49,2.35,1.79,2.35a1.51,1.51,0,0,0,1.57-1.1h1.85a3.33,3.33,0,0,1-3.48,2.6c-2.61,0-3.63-1.87-3.63-4.26,0-2,1-4.27,3.71-4.27s3.51,2,3.51,4c0,.09,0,.55,0,.65ZM42,6.68c0-1.09-.47-2-1.69-2s-1.69,1.16-1.74,2Z"/><path class="cls-6" d="M45.46,6.21c0-1.34,0-2.28,0-2.79h1.85c0,.37,0,.89,0,1.52a2.6,2.6,0,0,1,2.54-1.66V5.2c-1.74,0-2.52.75-2.52,2.6v3.85H45.46Z"/></g></g></g></g></g></svg>