<svg xmlns="http://www.w3.org/2000/svg" viewBox="0 0 51.23 68.16"><defs><style>.cls-1{fill:#8080f2;}.cls-2{fill:#4b32c3;}.cls-3{fill:#fff;}</style></defs><g id="Capa_2" data-name="Capa 2"><g id="Skills"><g id="OtherTools"><g id="Capa_25" data-name="Capa 25"><path class="cls-1" d="M15.49,39.54l9.73-5.62a.8.8,0,0,1,.79,0l9.73,5.62a.79.79,0,0,1,.39.68V51.45a.79.79,0,0,1-.39.69L26,57.75a.8.8,0,0,1-.79,0l-9.73-5.61a.79.79,0,0,1-.39-.69V40.22a.79.79,0,0,1,.39-.68"/><path class="cls-2" d="M50.91,44.66,39.29,24.43a2.47,2.47,0,0,0-2-1.27H14a2.45,2.45,0,0,0-2.05,1.27L.32,44.61A2.38,2.38,0,0,0,.32,47L11.94,67.06A2.29,2.29,0,0,0,14,68.16H37.24a2.3,2.3,0,0,0,2-1.09L50.91,47a2.29,2.29,0,0,0,0-2.32m-9.63,9.72a.84.84,0,0,1-.43.72L26,63.65a.89.89,0,0,1-.84,0L10.38,55.1a.86.86,0,0,1-.43-.72V37.29a.85.85,0,0,1,.43-.72L25.19,28A.84.84,0,0,1,26,28l14.82,8.54a.87.87,0,0,1,.43.72Z"/><g id="EslintFontVectors"><path class="cls-3" d="M10.79,6.72H6V10h5.33L11,11.65h-7V.65H11V2.27H6V5.09h4.84Z"/><path class="cls-3" d="M14.35,8.45a2,2,0,0,0,2.15,1.81c1.28,0,1.86-.59,1.86-1.52,0-1.08-.59-1.52-2.3-2C13.6,6,12.72,5.15,12.72,3.56c0-1.94,1.53-3,3.61-3,2.54,0,3.62,1.38,3.74,3.07H18.16A1.66,1.66,0,0,0,16.3,2c-1.09,0-1.63.52-1.63,1.37S15.23,4.56,16.86,5c2.77.82,3.48,1.92,3.48,3.47,0,1.81-1.21,3.27-3.93,3.27-2.36,0-3.84-1.21-4-3.33Z"/><path class="cls-3" d="M22.22.65h1.94V10h5L29,11.65H22.22Z"/><path class="cls-3" d="M30.58,0h1.89V1.91H30.58Zm0,3.42h1.89v8.23H30.58Z"/><path class="cls-3" d="M34.62,6c0-1.7,0-2.21,0-2.57h1.85a10.26,10.26,0,0,1,.06,1.14,2.49,2.49,0,0,1,2.34-1.3c1.66,0,2.6,1,2.6,3v5.37H39.54v-5c0-1-.28-1.79-1.38-1.79s-1.66.74-1.66,2.28v4.53H34.62Z"/><path class="cls-3" d="M42.55,3.42h1.22V1.13h1.87V3.42h1.53V4.9H45.64V9.44c0,.6.15.86.83.86a3.27,3.27,0,0,0,.54,0v1.33a4.8,4.8,0,0,1-1.24.15c-1.46,0-2-.58-2-2.06V4.9H42.55Z"/></g></g></g></g></g></svg>