<svg xmlns="http://www.w3.org/2000/svg" xmlns:xlink="http://www.w3.org/1999/xlink" viewBox="0 0 70 42.87"><defs><style>.cls-1{fill:none;}.cls-2{fill:#689f63;}.cls-3{fill:#fff;fill-rule:evenodd;}.cls-4{clip-path:url(#clip-path);}.cls-5{fill:url(#Degradado_sin_nombre_236);}.cls-6{clip-path:url(#clip-path-2);}.cls-7{fill:url(#Degradado_sin_nombre_2);}.cls-8{clip-path:url(#clip-path-3);}.cls-9{fill:url(#Degradado_sin_nombre_3);}</style><clipPath id="clip-path"><path class="cls-1" d="M25.43,9.9l-6.66,3.85a.82.82,0,0,0-.41.7v7.7a.82.82,0,0,0,.41.7l6.66,3.85a.83.83,0,0,0,.81,0l6.66-3.85a.82.82,0,0,0,.41-.7v-7.7a.82.82,0,0,0-.41-.7L26.24,9.9a.86.86,0,0,0-.41-.1.85.85,0,0,0-.4.1"/></clipPath><linearGradient id="Degradado_sin_nombre_236" x1="-309.96" y1="99.86" x2="-309.77" y2="99.86" gradientTransform="matrix(-50.75, 103.54, 103.54, 50.75, -26039.82, 27032.18)" gradientUnits="userSpaceOnUse"><stop offset="0.3" stop-color="#3e863d"/><stop offset="0.5" stop-color="#55934f"/><stop offset="0.8" stop-color="#5aad45"/></linearGradient><clipPath id="clip-path-2"><path class="cls-1" d="M18.53,22.64a.83.83,0,0,0,.24.21l5.71,3.3,1,.55a.74.74,0,0,0,.46.1.45.45,0,0,0,.16,0l7-12.87a.7.7,0,0,0-.19-.15l-4.36-2.52L26.23,9.9,26,9.82Z"/></clipPath><linearGradient id="Degradado_sin_nombre_2" x1="-313.21" y1="95.59" x2="-313.09" y2="95.59" gradientTransform="matrix(142.41, -105.22, -105.22, -142.41, 54678.55, -19319)" gradientUnits="userSpaceOnUse"><stop offset="0.57" stop-color="#3e863d"/><stop offset="0.72" stop-color="#619857"/><stop offset="1" stop-color="#76ac64"/></linearGradient><clipPath id="clip-path-3"><path class="cls-1" d="M25.75,9.8a.92.92,0,0,0-.32.1l-6.64,3.84L26,26.8a1,1,0,0,0,.29-.1l6.67-3.85a.85.85,0,0,0,.39-.55L26,9.81h-.23"/></clipPath><linearGradient id="Degradado_sin_nombre_3" x1="-311.21" y1="94.88" x2="-311.1" y2="94.88" gradientTransform="matrix(129.89, 0, 0, -129.89, 40441.39, 12342.53)" gradientUnits="userSpaceOnUse"><stop offset="0.16" stop-color="#6bbf47"/><stop offset="0.38" stop-color="#79b461"/><stop offset="0.47" stop-color="#75ac64"/><stop offset="0.7" stop-color="#659e5a"/><stop offset="0.9" stop-color="#3e863d"/></linearGradient></defs><g id="Capa_2" data-name="Capa 2"><g id="Skills"><g id="OtherTools"><g id="Capa_25" data-name="Capa 25"><path class="cls-2" d="M34.6,42.87a1.28,1.28,0,0,1-.66-.18l-2.12-1.25c-.31-.17-.16-.23-.05-.27a4.61,4.61,0,0,0,.95-.43.15.15,0,0,1,.16,0l1.62,1a.23.23,0,0,0,.2,0L41,38.06a.19.19,0,0,0,.09-.17v-7.3a.2.2,0,0,0-.09-.17L34.7,26.77a.23.23,0,0,0-.2,0l-6.32,3.65a.19.19,0,0,0-.1.17v7.3a.21.21,0,0,0,.1.17l1.73,1c.94.47,1.52-.09,1.52-.64v-7.2a.18.18,0,0,1,.18-.19h.8a.18.18,0,0,1,.18.19v7.2a1.75,1.75,0,0,1-1.87,2A2.72,2.72,0,0,1,29.27,40l-1.66-1a1.34,1.34,0,0,1-.67-1.15v-7.3a1.33,1.33,0,0,1,.67-1.15l6.32-3.65a1.37,1.37,0,0,1,1.33,0l6.32,3.65a1.34,1.34,0,0,1,.67,1.15v7.3A1.34,1.34,0,0,1,41.58,39l-6.32,3.65a1.28,1.28,0,0,1-.66.18"/><path class="cls-2" d="M36.55,37.84c-2.76,0-3.34-1.26-3.34-2.33a.18.18,0,0,1,.18-.18h.81a.19.19,0,0,1,.19.15c.12.84.49,1.25,2.16,1.25,1.33,0,1.9-.3,1.9-1,0-.41-.16-.71-2.23-.91-1.74-.18-2.8-.56-2.8-1.94s1.07-2,2.87-2c2,0,3,.71,3.16,2.22a.24.24,0,0,1-.05.14.25.25,0,0,1-.14.06h-.82a.17.17,0,0,1-.17-.15c-.2-.87-.68-1.15-2-1.15s-1.62.5-1.62.88.2.6,2.16.86,2.86.62,2.86,2-1.14,2.16-3.15,2.16m7.7-7.73h.21a.19.19,0,0,0,.21-.2c0-.18-.13-.18-.2-.18h-.22Zm-.26-.6h.47c.17,0,.48,0,.48.36a.31.31,0,0,1-.26.33c.19,0,.2.14.23.31a1.28,1.28,0,0,0,.07.37h-.29c0-.07,0-.42,0-.44a.13.13,0,0,0-.14-.11h-.24v.55H44Zm-.56.68a1,1,0,1,0,1-1,1,1,0,0,0-1,1m2.24,0A1.22,1.22,0,1,1,44.44,29a1.22,1.22,0,0,1,1.22,1.22"/><path class="cls-3" d="M15,14.33a.8.8,0,0,0-.4-.7L7.92,9.77a.83.83,0,0,0-.37-.11H7.48a.8.8,0,0,0-.37.11L.41,13.63a.81.81,0,0,0-.41.7V24.72a.42.42,0,0,0,.21.35.41.41,0,0,0,.4,0l4-2.29a.82.82,0,0,0,.41-.7V17.23a.8.8,0,0,1,.4-.7l1.7-1a.8.8,0,0,1,.4-.11.87.87,0,0,1,.41.11l1.69,1a.81.81,0,0,1,.41.7v4.85a.81.81,0,0,0,.4.7l4,2.28a.38.38,0,0,0,.41,0,.4.4,0,0,0,.2-.35Zm31.63,5.41a.19.19,0,0,1-.1.17l-2.3,1.33a.26.26,0,0,1-.21,0l-2.3-1.33a.19.19,0,0,1-.1-.17V17.08a.22.22,0,0,1,.1-.18L44,15.57a.23.23,0,0,1,.2,0l2.31,1.33a.22.22,0,0,1,.1.18ZM47.27.05a.38.38,0,0,0-.4,0,.4.4,0,0,0-.2.35V10.69a.29.29,0,0,1-.14.25.3.3,0,0,1-.29,0l-1.67-1a.79.79,0,0,0-.81,0l-6.71,3.87a.8.8,0,0,0-.4.7v7.74a.81.81,0,0,0,.4.7l6.71,3.87a.79.79,0,0,0,.81,0L51.27,23a.82.82,0,0,0,.41-.7V3a.8.8,0,0,0-.42-.7ZM69.6,17a.81.81,0,0,0,.4-.7V14.43a.81.81,0,0,0-.4-.7L62.94,9.87a.8.8,0,0,0-.82,0l-6.7,3.86a.83.83,0,0,0-.4.71v7.73a.83.83,0,0,0,.4.71l6.66,3.79a.81.81,0,0,0,.8,0l4-2.24a.42.42,0,0,0,.2-.35.41.41,0,0,0-.2-.36l-6.74-3.87a.39.39,0,0,1-.21-.35V17.09a.4.4,0,0,1,.2-.35l2.1-1.21a.38.38,0,0,1,.41,0l2.1,1.21a.4.4,0,0,1,.2.35V19a.43.43,0,0,0,.2.36.4.4,0,0,0,.41,0Z"/><g class="cls-4"><path class="cls-5" d="M40,13.1,21.26,3.89,11.63,23.54l18.78,9.21Z"/></g><g class="cls-6"><path class="cls-7" d="M10.41,15.82l13.26,18,17.54-13L28,2.86Z"/></g><g class="cls-8"><path class="cls-9" d="M18.79,9.8v17h14.5V9.8Z"/></g></g></g></g></g></svg>