<svg xmlns="http://www.w3.org/2000/svg" viewBox="0 0 80 21.14"><defs><style>.cls-1{fill:#10aa50;}.cls-2{fill:#b8c4c2;}.cls-3{fill:#12924f;}.cls-4{fill:#fff;}</style></defs><g id="Capa_2" data-name="Capa 2"><g id="Skills"><g id="OtherTools"><g id="Capa_25" data-name="Capa 25"><g id="MongoDb"><path class="cls-1" d="M9.32,8.41C8.2,3.5,5.88,2.19,5.29,1.27A11.67,11.67,0,0,1,4.64,0a1.25,1.25,0,0,1-.46,1A11.82,11.82,0,0,0,0,9.86a10.67,10.67,0,0,0,4.36,8.75,1.23,1.23,0,0,0,1.17-.18,10.16,10.16,0,0,0,3.78-10"/><path class="cls-2" d="M4.81,15.84a10.64,10.64,0,0,1-.43,2.77s.17,1.23.29,2.53h.42a22.4,22.4,0,0,1,.47-2.72C5,18.15,4.83,17,4.81,15.84Z"/><path class="cls-3" d="M5.55,18.42h0C5,18.16,4.84,17,4.81,15.84a51.41,51.41,0,0,0,.12-5.55c0-1,0-9-.24-10.18a12.72,12.72,0,0,0,.6,1.16c.59.92,2.92,2.23,4,7.14A10.13,10.13,0,0,1,5.55,18.42Z"/><path class="cls-4" d="M78.79,16.64A1.21,1.21,0,1,1,80,15.42a1.19,1.19,0,0,1-1.16,1.22h0m0-2.3a1.1,1.1,0,1,0,1.09,1.1h0a1.07,1.07,0,0,0-1-1.1h0m.29,1.86-.31-.67h-.25v.67h-.18V14.67h.45c.33,0,.47.15.47.43a.36.36,0,0,1-.3.4l.32.7Zm-.55-.83h.26c.22,0,.3-.07.3-.27s-.08-.26-.32-.26h-.24Z"/><path class="cls-4" d="M60.84,15.54a2.74,2.74,0,0,0,1.55.37,3,3,0,0,0,2.19-.78,4.17,4.17,0,0,0,1.23-3.29A3.92,3.92,0,0,0,64,8.29a4.84,4.84,0,0,0-2.58-.6,2.32,2.32,0,0,0-.76.09.48.48,0,0,0-.15.22c0,.28,0,2.38,0,3.63s0,3,0,3.27a.92.92,0,0,0,.32.64M57.73,7c.27,0,1.27,0,1.74,0,.87,0,1.47,0,3.11,0a5.09,5.09,0,0,1,3.34,1.07,4.5,4.5,0,0,1,1.52,3.52,4.55,4.55,0,0,1-1.89,3.95,6.28,6.28,0,0,1-3.93,1.11c-.93,0-2.53,0-3.87,0h0c-.06-.12.12-.6.23-.61a1.82,1.82,0,0,0,.62-.13c.29-.11.35-.26.38-.76,0-1,0-2.09,0-3.38,0-.93,0-2.72,0-3.29s-.25-.6-.66-.69a8.3,8.3,0,0,0-.87-.14,1.51,1.51,0,0,1,.29-.6"/><path class="cls-4" d="M71.29,7.78c-.06,0-.14.17-.14.24,0,.56,0,2,0,3a.11.11,0,0,0,.08.08c.2,0,.7,0,1.12,0A2.72,2.72,0,0,0,73.44,11a1.45,1.45,0,0,0,.73-1.37c0-1.33-.94-1.84-2.32-1.84a5.25,5.25,0,0,0-.56,0m3.53,6.14c0-1.35-1-2.12-2.81-2.12a7.47,7.47,0,0,0-.8,0s-.09,0-.09.08c0,1,0,2.52,0,3.13a1.05,1.05,0,0,0,.45.74,3.11,3.11,0,0,0,1.2.17,1.87,1.87,0,0,0,2-2M68.49,7c.14,0,.55,0,1.61,0s1.8,0,2.76,0c1.2,0,2.84.43,2.84,2.21a2.14,2.14,0,0,1-1.43,1.92s0,.05,0,.07a2.46,2.46,0,0,1,2.16,2.35,2.86,2.86,0,0,1-2,2.67,6.43,6.43,0,0,1-2.54.43c-.7,0-2.57-.07-3.61-.06-.11-.05.09-.54.19-.62a2.38,2.38,0,0,0,.7-.11c.37-.09.42-.21.47-.76s0-2.18,0-3.4c0-1.66,0-2.78,0-3.33s-.17-.57-.47-.65l-.93-.13c-.08-.08.16-.54.24-.6"/><path class="cls-4" d="M12.76,16.64a.65.65,0,0,1,0-.31.41.41,0,0,1,0-.21q.3,0,.6-.12c.27-.07.37-.22.39-.57,0-.83.05-2.38,0-3.47v0a.45.45,0,0,0-.14-.39,3.24,3.24,0,0,0-.83-.37c-.13,0-.2-.11-.2-.19s.09-.17.26-.2A10.22,10.22,0,0,0,15,10.24a.27.27,0,0,1,.06.21.92.92,0,0,1,0,.16c0,.15,0,.32,0,.5a.12.12,0,0,0,.13.1l.07,0a3.78,3.78,0,0,1,2.08-.94,1.79,1.79,0,0,1,1.58,1,.12.12,0,0,0,.09,0,.1.1,0,0,0,.09,0,4.1,4.1,0,0,1,2.15-1c1.27,0,2,.95,2,2.54,0,.46,0,1,0,1.58v1.23a.42.42,0,0,0,.25.33,3.26,3.26,0,0,0,.79.19h0a1.29,1.29,0,0,1-.08.52h-.35c-.26,0-.63,0-1.05,0-.84,0-1.28,0-1.71,0a1.3,1.3,0,0,1,0-.52,3.21,3.21,0,0,0,.52-.11c.27-.09.34-.21.36-.57s.06-2.49,0-3a1.35,1.35,0,0,0-1.4-1.19,2.48,2.48,0,0,0-1.4.53.21.21,0,0,0-.05.13h0A5.85,5.85,0,0,1,19.12,13v.9c0,.61,0,1.2,0,1.64a.4.4,0,0,0,.33.42l.2.05.44.09a.86.86,0,0,1,0,.39.29.29,0,0,1,0,.13c-.47,0-1,0-1.65,0l-.86,0h-.61a.59.59,0,0,1-.05-.27.45.45,0,0,1,.05-.25l.19,0a4,4,0,0,0,.43-.09c.23-.07.32-.2.34-.49a23.42,23.42,0,0,0,0-3.15,1.28,1.28,0,0,0-1.34-1.19,2.6,2.6,0,0,0-1.4.53A.48.48,0,0,0,15,12v.81c0,1,0,2.22,0,2.76a.45.45,0,0,0,.38.43l.32.06.25,0a1,1,0,0,1,0,.52l-.49,0-1.07,0-1.09,0-.5,0"/><path class="cls-4" d="M28.36,10.89a1.39,1.39,0,0,0-.75.21,2.12,2.12,0,0,0-.81,2c0,1.8.9,3.06,2.19,3.06a1.41,1.41,0,0,0,1-.33,2.45,2.45,0,0,0,.61-1.92c0-1.77-.88-3-2.2-3m.25,5.89a3,3,0,0,1-3.16-3.32,3,3,0,0,1,1.36-2.6,4.18,4.18,0,0,1,2.1-.62,2.94,2.94,0,0,1,3,3.12,3.21,3.21,0,0,1-1.43,2.84,4.08,4.08,0,0,1-1.89.58"/><path class="cls-4" d="M52.12,10.89a1.38,1.38,0,0,0-.74.21,2.12,2.12,0,0,0-.81,2c0,1.8.9,3.06,2.19,3.06a1.41,1.41,0,0,0,1-.33,2.45,2.45,0,0,0,.61-1.92c0-1.77-.88-3-2.2-3m.25,5.89a3,3,0,0,1-3.16-3.32,3,3,0,0,1,1.36-2.6,4.18,4.18,0,0,1,2.1-.62,2.94,2.94,0,0,1,3,3.12,3.21,3.21,0,0,1-1.43,2.84,4.08,4.08,0,0,1-1.89.58"/><path class="cls-4" d="M44.26,10.83c-.72,0-1.18.57-1.18,1.45s.4,1.93,1.53,1.93a1.09,1.09,0,0,0,.71-.28,1.81,1.81,0,0,0,.44-1.27c0-1.14-.56-1.83-1.49-1.83m-.1,6.07a1.19,1.19,0,0,0-.58.15c-.57.36-.83.72-.83,1.15a1.23,1.23,0,0,0,.48,1,2.45,2.45,0,0,0,1.65.5c1.4,0,2-.75,2-1.49a1.05,1.05,0,0,0-.79-1.06,6.2,6.2,0,0,0-1.94-.24m.09,3.57a3,3,0,0,1-2-.58,1.83,1.83,0,0,1-.73-1.36,1.11,1.11,0,0,1,.28-.69,7.42,7.42,0,0,1,1.26-1,.07.07,0,0,0,.05-.06.08.08,0,0,0-.05-.07,1.31,1.31,0,0,1-.9-.87,0,0,0,0,0,0,0,.2.2,0,0,1,.08-.25c.09-.07.24-.15.39-.24a6.81,6.81,0,0,0,.63-.41.11.11,0,0,0,0-.15h0a2,2,0,0,1-1.43-2.11,2.08,2.08,0,0,1,.88-1.73,4,4,0,0,1,2-.66h0a4.09,4.09,0,0,1,1.51.33,2.39,2.39,0,0,0,.88.14,1.24,1.24,0,0,0,1-.36.86.86,0,0,1,0,.27,1,1,0,0,1-.18.63.76.76,0,0,1-.59.26h-.08a2.25,2.25,0,0,1-.36-.06l-.06,0s0,.06,0,.1v0a4,4,0,0,1,.08.59,2.21,2.21,0,0,1-.92,2,3.22,3.22,0,0,1-1.6.62h-.19l-.18,0h0c-.11,0-.38.16-.38.4s.12.45.71.5l.38,0A12.79,12.79,0,0,1,47,16a1.53,1.53,0,0,1,1,1.47,3,3,0,0,1-1.93,2.56,4.25,4.25,0,0,1-1.82.41"/><path class="cls-4" d="M40.69,16.1a2.78,2.78,0,0,1-.88-.23.39.39,0,0,1-.11-.22c0-.48,0-1.86,0-2.76A3.36,3.36,0,0,0,39.23,11a1.87,1.87,0,0,0-1.58-.83,3.65,3.65,0,0,0-2.08,1s-.12.11-.12,0,0-.46,0-.66a.36.36,0,0,0-.1-.28,9,9,0,0,1-2.12.55c-.33.07-.41.38-.06.49h0a3,3,0,0,1,.8.36c.14.1.12.26.12.38,0,1,0,2.61,0,3.47,0,.34-.11.46-.36.53h0a5.4,5.4,0,0,1-.58.1.83.83,0,0,0,0,.62c.16,0,.95-.05,1.6-.05.9,0,1.37.05,1.6.05a.8.8,0,0,0,.06-.62,2.74,2.74,0,0,1-.63-.09c-.25-.06-.31-.18-.33-.46,0-.72,0-2.26,0-3.3a.63.63,0,0,1,.17-.51,2,2,0,0,1,1.27-.46,1.42,1.42,0,0,1,1,.32,1.31,1.31,0,0,1,.44.87c.07.58.05,1.75.05,2.76,0,.56-.05.7-.25.76a2.76,2.76,0,0,1-.63.12.76.76,0,0,0,0,.61c.4,0,.87,0,1.55,0,.85,0,1.4,0,1.61,0a.82.82,0,0,0,.07-.61"/></g></g></g></g></g></svg>