<svg xmlns="http://www.w3.org/2000/svg" viewBox="0 0 75 16.9"><defs><style>.cls-1{fill:#fff;}</style></defs><g id="Capa_2" data-name="Capa 2"><g id="Skills"><g id="OtherTools"><g id="Capa_25" data-name="Capa 25"><path id="Vercel" class="cls-1" d="M37.58,4.23a4.67,4.67,0,0,0-5,4.75c0,2.86,2.36,4.76,5.28,4.76a5.42,5.42,0,0,0,4.27-1.87l-2-1.17a3,3,0,0,1-2.25.92A2.81,2.81,0,0,1,35.12,9.9h7.39a4.71,4.71,0,0,0,.1-.92C42.61,6.13,40.51,4.23,37.58,4.23ZM35.09,8.05a2.67,2.67,0,0,1,5,0Zm-.6-6.73L27.18,14,19.86,1.32H22.6l4.58,7.92,4.57-7.92ZM9.76,0l9.76,16.9H0ZM53.22,9a2.67,2.67,0,0,0,5,1.34l2,1.17a4.86,4.86,0,0,1-4.34,2.24,4.67,4.67,0,0,1-5-4.76,4.67,4.67,0,0,1,5-4.75,4.84,4.84,0,0,1,4.34,2.24l-2,1.16a2.48,2.48,0,0,0-2.32-1.3A2.52,2.52,0,0,0,53.22,9ZM75,1.32V13.47H72.63V1.32ZM66,4.23A4.67,4.67,0,0,0,61,9c0,2.86,2.37,4.76,5.28,4.76a5.44,5.44,0,0,0,4.28-1.87l-2-1.17a3,3,0,0,1-2.25.92A2.82,2.82,0,0,1,63.56,9.9H71A4.76,4.76,0,0,0,66,4.23Zm-2.5,3.82a2.67,2.67,0,0,1,5,0ZM50.05,4.49V7.05a3.42,3.42,0,0,0-.84-.13,2.51,2.51,0,0,0-2.64,2.64v3.91H44.19v-9h2.38V6.92C46.57,5.58,48.12,4.49,50.05,4.49Z"/></g></g></g></g></svg>