<svg xmlns="http://www.w3.org/2000/svg" viewBox="0 0 479 119.75"><defs><style>.cls-1{fill:#2d6eae;fill-rule:evenodd;}.cls-2{fill:#2b67b0;}</style></defs><g id="Capa_2" data-name="Capa 2"><g id="katman_1" data-name="katman 1"><path class="cls-1" d="M470.33,0H368.28a8.9,8.9,0,0,0-9,8.62V111.13c0,4.76,2.72,8.62,7.6,8.62h102c4.89,0,10.1-3.86,10.1-8.62V8.62A8.59,8.59,0,0,0,470.33,0ZM404.87,45.62H421v8.22h.18c2.46-4.43,9.72-8.93,18.69-8.93,17.23,0,22,9.15,22,26.09v31.65H444.78V74.12c0-7.58-3-14.24-10.11-14.24-8.6,0-12.7,5.82-12.7,15.38v27.39H404.86v-57Zm-28.51,57h17.11v-57H376.36Zm19.24-77A10.69,10.69,0,1,1,384.91,15,10.68,10.68,0,0,1,395.6,25.67Z"/><path class="cls-2" d="M342.14,102.65h-16V95.86H326c-3.55,4.12-9.72,7.5-20.18,7.5-14.26,0-26.53-10.73-26.53-29.16,0-17.56,12.1-29.29,27.07-29.29,9.27,0,15,3.3,18.5,7.5H325V17.11h17.11ZM310.66,57.74c-9.78,0-15.28,7-15.28,16.25s5.5,16.54,15.28,16.54S326.18,83.45,326.18,74c0-9.73-5.73-16.25-15.52-16.25Z"/><path class="cls-2" d="M271.78,93.46c-4,5.23-12.35,9.9-25.77,9.9-17.91,0-29.32-11.86-29.32-30.49,0-16.55,10.33-28,29.82-28,16.83,0,27.21,11.05,27.21,30.49a28,28,0,0,1-.31,3.87H232.84l.1,1.76C234.06,86,237.78,92,246.29,92a18.51,18.51,0,0,0,14.84-7.13Zm-14.53-25c.11-6-4.3-12.12-11.26-12.12a13,13,0,0,0-13.16,12.12Z"/><polygon class="cls-2" points="216.69 45.62 196.73 45.62 176.77 68.43 176.77 17.11 159.67 17.11 159.67 102.65 176.77 102.65 176.77 74.14 197.87 102.65 218.06 102.65 193.88 71.47 216.69 45.62"/><path class="cls-2" d="M91.24,45.62h16.12v8.22h.18c2.46-4.43,9.72-8.93,18.69-8.93,17.23,0,22,10.93,22,26.09v31.65H131.15V74.12c0-8.39-3-14.24-10.11-14.24-8.6,0-12.7,6.81-12.7,15.38v27.39H91.23v-57Z"/><path class="cls-2" d="M62.73,102.65H79.84v-57H62.73Zm8.56-66.72A10.26,10.26,0,1,0,61,25.67,10.26,10.26,0,0,0,71.29,35.93Z"/><polygon class="cls-2" points="17.11 17.11 0 17.11 0 102.65 51.32 102.65 51.32 85.54 17.11 85.54 17.11 17.11"/></g></g></svg>