<svg xmlns="http://www.w3.org/2000/svg" viewBox="0 0 507.86 120"><defs><style>.cls-1,.cls-2{fill:#161b22;}.cls-2{fill-rule:evenodd;}</style></defs><g id="Capa_2" data-name="Capa 2"><g id="svg2"><g id="layer1"><g id="g3012"><g id="g3014"><g id="g3016"><g id="g3018"><path id="path3024" class="cls-1" d="M209.31,54.44H178.24a1.45,1.45,0,0,0-1.45,1.45V71.08a1.46,1.46,0,0,0,1.45,1.46h12.12V91.41s-2.72.93-10.25.93c-8.88,0-21.28-3.25-21.28-30.52S171.75,31,183.87,31c10.49,0,15,1.85,17.89,2.74a1.47,1.47,0,0,0,1.74-1.43L207,17.59a1.36,1.36,0,0,0-.56-1.13c-1.16-.84-8.29-4.82-26.3-4.82-20.74,0-42,8.82-42,51.25s24.36,48.75,44.89,48.75c17,0,27.31-7.27,27.31-7.27.43-.23.47-.83.47-1.1V55.89a1.45,1.45,0,0,0-1.45-1.45"/><path id="path3026" class="cls-1" d="M369.45,16.72A1.44,1.44,0,0,0,368,15.26h-17.5a1.45,1.45,0,0,0-1.45,1.46V50.53H321.79V16.72a1.44,1.44,0,0,0-1.44-1.46h-17.5a1.45,1.45,0,0,0-1.44,1.46v91.55a1.46,1.46,0,0,0,1.44,1.47h17.5a1.45,1.45,0,0,0,1.44-1.47V69.11h27.27l0,39.16a1.46,1.46,0,0,0,1.45,1.47H368a1.46,1.46,0,0,0,1.45-1.47V16.72"/><path id="path3028" class="cls-1" d="M242.33,28.73A11.29,11.29,0,1,0,231,40.13a11.34,11.34,0,0,0,11.29-11.4"/><path id="path3030" class="cls-1" d="M241.07,89V46.7a1.45,1.45,0,0,0-1.44-1.46H222.19a1.68,1.68,0,0,0-1.52,1.63v60.54c0,1.78,1.11,2.31,2.54,2.31h15.72c1.72,0,2.14-.84,2.14-2.33V89"/><path id="path3032" class="cls-1" d="M435.94,45.38H418.58a1.45,1.45,0,0,0-1.45,1.46V91.73A19.6,19.6,0,0,1,406.46,95c-6.26,0-7.92-2.84-7.92-9V46.84a1.45,1.45,0,0,0-1.44-1.46H379.48A1.45,1.45,0,0,0,378,46.84V89c0,18.21,10.15,22.66,24.11,22.66,11.45,0,20.68-6.32,20.68-6.32a36.63,36.63,0,0,0,.64,3.73,1.54,1.54,0,0,0,1.28.79l11.21,0a1.46,1.46,0,0,0,1.44-1.46V46.84a1.45,1.45,0,0,0-1.45-1.46"/><path id="path3034" class="cls-1" d="M476.54,94.9A20.78,20.78,0,0,1,466.44,92V63a23.23,23.23,0,0,1,9-2.92c6.25-.56,12.28,1.33,12.28,16.25C487.69,92.05,485,95.16,476.54,94.9Zm6.85-51.58a32.66,32.66,0,0,0-16.57,4.4v-31a1.44,1.44,0,0,0-1.44-1.46H447.83a1.45,1.45,0,0,0-1.44,1.46v91.55a1.46,1.46,0,0,0,1.45,1.47H460a1.46,1.46,0,0,0,1.27-.78,28.8,28.8,0,0,0,.74-4.22s7.17,6.8,20.76,6.8c15.94,0,25.08-8.09,25.08-36.31s-14.6-31.91-24.47-31.91"/><path id="path3036" class="cls-1" d="M291.36,45.23H278.23l0-17.34c0-.65-.33-1-1.09-1H259.23c-.69,0-1.07.31-1.07,1V45.8s-9,2.16-9.56,2.34a1.44,1.44,0,0,0-1,1.39V60.79A1.46,1.46,0,0,0,249,62.26h9.16V89.34c0,20.12,14.12,22.1,23.64,22.1a39.8,39.8,0,0,0,10.42-1.72,1.35,1.35,0,0,0,.82-1.31V96a1.48,1.48,0,0,0-1.45-1.46c-.76,0-2.72.31-4.73.31-6.45,0-8.64-3-8.64-6.87V62.26h13.13a1.46,1.46,0,0,0,1.45-1.47V46.69a1.45,1.45,0,0,0-1.45-1.46"/></g></g></g></g></g><path class="cls-2" d="M61.52,0A61.52,61.52,0,0,0,42.06,119.88c3.08.54,4.23-1.3,4.23-2.92,0-1.46-.07-6.31-.07-11.46-15.46,2.85-19.46-3.77-20.69-7.23-.69-1.76-3.69-7.22-6.31-8.68-2.15-1.16-5.22-4-.07-4.08,4.84-.08,8.3,4.46,9.46,6.31,5.53,9.3,14.38,6.69,17.91,5.07a13,13,0,0,1,3.92-8.23c-13.68-1.54-28-6.84-28-30.37a23.93,23.93,0,0,1,6.31-16.53c-.62-1.54-2.77-7.85.61-16.31,0,0,5.16-1.61,16.92,6.31a57.9,57.9,0,0,1,30.76,0C88.82,23.76,94,25.45,94,25.45c3.38,8.46,1.23,14.77.61,16.31a23.74,23.74,0,0,1,6.31,16.53c0,23.61-14.38,28.83-28.07,30.37C75.05,90.58,77,94.28,77,100c0,8.23-.07,14.84-.07,16.92,0,1.62,1.15,3.54,4.23,2.92A61.55,61.55,0,0,0,61.52,0Z"/></g></g></svg>