<svg xmlns="http://www.w3.org/2000/svg" version="1.1" xmlns:xlink="http://www.w3.org/1999/xlink" xmlns:svgjs="http://svgjs.com/svgjs" width="auto" height="auto" preserveAspectRatio="none" viewBox="0 0 970 250">
    <g mask="url(&quot;#SvgjsMask1037&quot;)" fill="none">
        <rect width="970" height="250" x="0" y="0" fill="rgba(63, 26, 105, 1)"></rect>
        <path d="M0,263.224C50.232,268.63,105.729,256.457,142.652,221.972C178.289,188.688,176.134,133.399,189.281,86.442C200.25,47.266,214.087,9.996,213.389,-30.681C212.615,-75.831,209.368,-122.297,185.049,-160.346C158.829,-201.368,121.105,-240.345,73.344,-249.788C26.366,-259.076,-18.871,-231.101,-61.388,-209.069C-97.436,-190.389,-126.416,-163.262,-152.944,-132.526C-179.425,-101.845,-203.583,-69.777,-215.14,-30.932C-228.025,12.377,-239.604,59.795,-222.618,101.666C-205.423,144.052,-161.216,166.387,-124.196,193.253C-84.944,221.739,-48.221,258.034,0,263.224" fill="#341556"></path>
        <path d="M970 426.21799999999996C1006.095 426.004 1044.288 432.308 1075.389 413.988 1106.906 395.423 1119.073 357.942 1138.513 326.957 1161.184 290.821 1203.627 259.485 1198.924 217.086 1194.234 174.801 1144.144 155.394 1115.951 123.533 1088.133 92.095 1075.019 41.21600000000001 1034.294 31.034999999999997 993.469 20.829000000000008 958.294 60.86099999999999 918.362 74.136 880.299 86.78999999999999 834.616 79.93299999999999 805.197 107.19800000000001 774.9780000000001 135.204 771.58 180.128 761.0260000000001 219.954 749.082 265.023 717.736 314.028 739.451 355.288 761.326 396.852 818.914 401.43 863.806 415.241 898.522 425.922 933.679 426.433 970 426.21799999999996" fill="#4a1f7c"></path>
    </g>
    <defs>
        <mask id="SvgjsMask1037">
            <rect width="970" height="250" fill="#ffffff"></rect>
        </mask>
    </defs>
</svg>