<svg xmlns="http://www.w3.org/2000/svg" viewBox="0 0 1024 1024"><defs><style>.cls-1{stroke:#000;}.cls-1,.cls-3{stroke-miterlimit:10;}.cls-2{fill:#a512fb;}.cls-3{fill:#fff;stroke:#e5e5e5;}</style></defs><g id="Capa_2" data-name="Capa 2"><circle class="cls-1" cx="511.96" cy="511.96" r="512"/></g><g id="Capa_1" data-name="Capa 1"><path class="cls-2" d="M553.42,278c11.73-.47,20.38-8.39,30.58-12.54,2-.81,3-2.6,2-3.85-5.79-7.06,1.76-8.58,4.94-11,2.92-2.25,6.86-6.78,10.94-.59,1.27,1.92,4,1.64,5.64.72,10-5.76,21.85-5.79,32-11.88,20.69-12.37,41.89-24.18,63.83-34.13,19.88-9,39.38-19,59.41-27.43,24.47-10.31,45.67-25.78,68.81-38,2.77-1.46,6-4,8.1-1.21,1.83,2.47-1.27,5.42-3.39,7.48-16.5,16.08-35.84,28.7-53.45,43.45-27,22.59-57.23,40.2-87.68,57.67-22.51,12.91-43.47,28.49-65.76,41.82C576.75,320,522.87,349.23,466.21,373c-13.95,5.86-28.41,10.53-42.53,16-2.57,1-6.85,1.67-6.21,5.43.55,3.26,4.51,1.75,6.94,2.4,22.75,6.09,45.55,12,68.26,18.28,18.83,5.2,37.27,12.42,56.4,15.84,28,5,45.51,22,59.28,44.74,8.44,14,14.28,28.71,15.85,45.27,1.63,17.11-9.93,30.17-27,29a5.91,5.91,0,0,1-5.08-2.83c-9-15.63-24.44-22.3-39.63-29.93-22-11.07-45-19.06-68.67-25.76-23.11-6.54-46.7-10.49-70.09-15.52-24.73-5.32-49.66-9.73-74.24-15.65a280.45,280.45,0,0,0-29.92-5c-37.49-4.84-75-9.74-112.63-13.26-19.14-1.79-38.56-.79-57.86-.86-9.93,0-18.47-2.26-24.55-11.11-2.57-3.74-4.66-6.91-4.49-11.8a155.56,155.56,0,0,0-3.16-37.3c-3.78-18.18,9.75-31.36,27.85-27.59,30.53,6.37,61.22,4.8,91.81,1q34.1-4.2,67.91-10.6c22.51-4.23,44.9-9.18,66.78-16.16a180,180,0,0,1,25.41-6.6c17.22-2.84,31-14.3,47.7-18.34,3.07-.74,5.54-2.25,8.19.85-13.44,10.43-34.37,8.14-43.92,26.59,8.89.92,16.25-2.29,23.85-5.27,11.13-4.37,20.57-12.07,32.41-15.11q33.67-8.64,67-18.53c5.8-1.73,11.69-3.86,16.08-9.44,6.06-7.72,12.27-8.42,15.59-3.56l-2.18.71c.22.07.51.27.64.2A15.48,15.48,0,0,0,553.42,278Z"/></g><g id="Capa_3" data-name="Capa 3"><path class="cls-3" d="M520.53,619.41c31.65,0,63.31-.58,94.94.17,29.52.71,55.37,10.28,69.37,38.53,20.86,42.1-.27,85.87-44,98.22-10.31,2.92-20.79,3.7-31.27,3.74-62.07.21-124.14,0-186.2.26-7.17,0-9.21-2.09-9.07-9.13.38-18.28.07-18.29,18.11-18.29,9.32,0,18.64-.15,28,.07,4.39.11,6.15-1.43,6.13-5.9q-.18-37.14,0-74.27c0-4.68-1.94-5.83-6.16-5.78-13,.15-26-.13-39,.13-5,.1-7.1-1.29-7-6.58.61-25.63-3.53-20.61,20-20.87,28.7-.31,57.41-.07,86.11-.07Zm41.08,27.43c-19.86,0-39.73.25-59.59-.14-6.62-.13-8.3,2.13-8.21,8.46q.49,34.9,0,69.82c-.08,6.38,1.74,8.42,8.31,8.37,35.55-.31,71.11-.21,106.67-.1a92.19,92.19,0,0,0,24.73-2.85c33.65-9.18,38.61-41.23,25.49-63.13-9.28-15.49-24.59-20.09-41.5-20.36C598.89,646.62,580.25,646.85,561.61,646.84Z"/><path class="cls-3" d="M395.28,648.77c0,7.11-.14,14.22.05,21.33.12,4.14-1.7,5.86-5.66,5.79a48,48,0,0,0-5.88,0c-8,.86-13.36-.64-17.79-9.29-6.29-12.28-19.42-17.56-32.13-21.47-29.69-9.12-59.14-8.21-87.4,5.26-23.1,11-33.05,31.13-27.35,54,3.52,14.16,14.38,22,27,26.87,34.1,13,68.4,13.54,102.27-1,8.85-3.8,16.95-9.07,19-19.8.43-2.3,2.29-3.28,4.3-3.36,6.12-.24,12.27-.51,18.38-.23,4.52.22,4.41,3.64,3.82,7.08-2.06,12-8.73,21.35-17.91,28.62-19.09,15.13-41.46,21.6-65.51,22.5-20.88.78-41.66.2-61.88-6.09-20.06-6.23-38.29-15.54-50.82-33-15.57-21.66-11.85-55.55,7.71-77.37,14.45-16.13,33.1-24.79,53.63-30.06,11.95-3.07,24.14-3.81,36.44-4.15a127.39,127.39,0,0,1,67.58,16.79c5.55,3.16,7.47,2.44,6.81-3.94-.47-4.67,1.46-6.63,6.32-6.55,22.82.37,18.61-2.42,19,18.41C395.34,642.39,395.29,645.58,395.28,648.77Z"/><path class="cls-3" d="M795.87,611.68c15.45.17,16.58-1.93,9.3,12.31Q771.63,689.62,738,755.21c-1.8,3.53-4.26,5.07-8.13,5-4.66-.08-9.33,0-14,.18-6.07.27-6.52-1.72-3.85-6.87,15.84-30.6,31.38-61.36,47-92,6.57-12.86,13.8-25.42,19.58-38.61C782.62,613.89,787.71,609.29,795.87,611.68Z"/><path class="cls-3" d="M942.71,685.46c-.11,4.34-1.92,6.53-4.15,8.73Q901.66,730.5,865,767c-5.1,5.07-8.77,5.7-14.9.37-16.5-13-11.92-14.07,18.89-45,32.17-33.74,32.17-33.48,21.48-43C861.11,650,829.29,624,848.74,608.66c6.47-5.83,11.11-6.67,17.61,0,23.81,24.25,48,48.09,72.08,72.11C940.13,682.41,941.65,684.27,942.71,685.46Z"/><path class="cls-3" d="M81.31,704.39c-.23-4.33,1.39-6.66,3.45-9q33.88-39.14,67.58-78.45c4.67-5.46,8.28-6.38,14.82-1.56,17.48,11.6,13,13.08-15.26,46.32-29.38,36.19-29.4,35.93-18,44.58,31.57,27,65.36,50.39,47.19,67.22-6,6.32-10.55,7.53-17.56,1.45C137.88,752.64,111.83,730.8,86,708.78,84.13,707.23,82.47,705.49,81.31,704.39Z"/></g></svg>